inDegrees=no
num_controls=7
num_derivatives=13
num_iterations=87
num_multipliers=7
num_parameters=0
num_slacks=7
num_states=26
objective=0.334220
objective_accelerations=0.036589
objective_balance=0.001207
objective_effort=0.027360
objective_height=0.267401
objective_ligament=0.001663
solver_duration=925.847191
status=Solve_Succeeded
success=true
DataType=double
version=3
OpenSimVersion=4.5
endheader
time	/jointset/ground_pelvis/pelvis_tilt/value	/jointset/ground_pelvis/pelvis_tx/value	/jointset/ground_pelvis/pelvis_ty/value	/jointset/hip_r/hip_flexion_r/value	/jointset/hip_r/hip_adduction_r/value	/jointset/hip_r/hip_rotation_r/value	/jointset/back/lumbar_extension/value	/jointset/patellofemoral_r/patellar_flexion_r/value	/jointset/knee_r/knee_flexion_r/value	/jointset/knee_r/knee_adduction_r/value	/jointset/knee_r/knee_rotation_r/value	/jointset/ankle_r/ankle_angle_r/value	/jointset/subtalar_r/subtalar_angle_r/value	/jointset/ground_pelvis/pelvis_tilt/speed	/jointset/ground_pelvis/pelvis_tx/speed	/jointset/ground_pelvis/pelvis_ty/speed	/jointset/hip_r/hip_flexion_r/speed	/jointset/hip_r/hip_adduction_r/speed	/jointset/hip_r/hip_rotation_r/speed	/jointset/back/lumbar_extension/speed	/jointset/patellofemoral_r/patellar_flexion_r/speed	/jointset/knee_r/knee_flexion_r/speed	/jointset/knee_r/knee_adduction_r/speed	/jointset/knee_r/knee_rotation_r/speed	/jointset/ankle_r/ankle_angle_r/speed	/jointset/subtalar_r/subtalar_angle_r/speed	/forceset/tau_hip_flexion_r	/forceset/tau_hip_adduction_r	/forceset/tau_hip_rotation_r	/forceset/tau_knee_flexion_r	/forceset/tau_ankle_angle_r	/forceset/tau_subtalar_angle_r	/forceset/tau_lumbar_extension	lambda_cid13_p0	lambda_cid14_p0	lambda_cid14_p1	lambda_cid14_p2	lambda_cid14_p3	lambda_cid14_p4	lambda_cid14_p5	/jointset/ground_pelvis/pelvis_tilt/accel	/jointset/ground_pelvis/pelvis_tx/accel	/jointset/ground_pelvis/pelvis_ty/accel	/jointset/hip_r/hip_flexion_r/accel	/jointset/hip_r/hip_adduction_r/accel	/jointset/hip_r/hip_rotation_r/accel	/jointset/back/lumbar_extension/accel	/jointset/patellofemoral_r/patellar_flexion_r/accel	/jointset/knee_r/knee_flexion_r/accel	/jointset/knee_r/knee_adduction_r/accel	/jointset/knee_r/knee_rotation_r/accel	/jointset/ankle_r/ankle_angle_r/accel	/jointset/subtalar_r/subtalar_angle_r/accel	gamma_cid13_p0	gamma_cid14_p0	gamma_cid14_p1	gamma_cid14_p2	gamma_cid14_p3	gamma_cid14_p4	gamma_cid14_p5
0	-0.01534189618240073	0.1361514972684646	0.9317751881562201	0.1934211968871041	-0.2452051729893634	-0.2307931799901536	-0.2903787966825928	0.2311786273363526	0.2311786273363406	0.1702732079087146	0.1730484023995652	0.089344008118978	0.04264900900317932	0	0	0	0	0	0	0	0	0	0	0	0	0	0.1042579977871301	-0.05952521928496491	0.00906228715014371	-0.2472957996295033	0.1225828376565803	-0.1360412835497639	-0.02631162550002064	-30.05370250628388	-8.857402280782518	-54.99058522756661	2.743260889909646	1.844147503166805	-610.8172802816297	20.66329067287286	-1.998607100438373	-1.869079559542062	-0.825732386852565	10.12586824100189	0.04999335700272874	2.595104015647362	-6.28989119795062	10.11856063819966	10.11856063819943	-2.600263216716847	0.2807588775033769	2.713977144607862	0.7640485576276439	5.018429403175422e-08	3.970340252474607e-08	-3.260033388977003e-07	2.084070538090184e-07	4.41533670898121e-09	1.546224124821933e-07	-2.558650477561699e-07
0.01	-0.01543647197816241	0.1360603496146292	0.9317349880235197	0.1939146799116865	-0.2452007657061289	-0.2306587862861698	-0.2906941052755724	0.2316756075559464	0.2316756075559496	0.1701418955747818	0.1730542538914036	0.08947953097732048	0.04268944696428064	-0.01890644625038537	-0.01802141889187798	-0.008028340169597173	0.09822440087358754	0.0008645127046961828	0.0269123857933357	-0.06258494815894119	0.09901590074560083	0.09901590074559942	-0.02610867479998623	0.001025123742900426	0.02717340281435267	0.00808613025503389	0.1041743455860731	-0.07892243639511409	0.008838488158543926	-0.2525916178837934	0.1287309022248268	-0.1223199924407418	-0.02504094057577022	-30.05809493336463	-6.22641162408201	-48.41338399149821	1.514910709113508	-2.096084484112589	-612.2290980523011	34.94020102547033	-1.835357411073664	-1.737455389784788	-0.7896009519650043	9.599896827401226	0.1021234939668397	2.744396537157606	-6.171281059335708	9.736073280689562	9.73607328068946	-2.593134147488637	-0.008344547421558744	2.729354976349359	0.8306488862311728	9.296797608305642e-08	3.671516367684272e-08	-6.33867124171675e-07	2.94289775980174e-07	4.340772709129041e-08	2.213920439857848e-08	-4.37735382473837e-07
0.02	-0.01571985104116827	0.1357952313047198	0.9316148612651332	0.1953762411083595	-0.2451882246424919	-0.2302542505890382	-0.2916209602370346	0.2331513404805464	0.2331513404805464	0.169754103585469	0.1730660098867707	0.08988885448911717	0.04281069695329018	-0.03776065345015839	-0.03479413121475552	-0.01598532513721802	0.1936156344217484	0.001626756079966455	0.05402839862590217	-0.1223092736966704	0.1957505410091793	0.1957505410091771	-0.05129593103392526	0.001180900681600616	0.05476013068872784	0.01616240558166077	0.1040906933847844	-0.09831965350532593	0.008614689167289679	-0.2578874361382716	0.1348789667929969	-0.1085987013318218	-0.02377025565164009	-30.07069439872374	-3.515674382256252	-41.84589951393176	0.3151614631256526	-5.979516315028564	-612.3411809169745	48.92545902559873	-1.988159290315864	-1.619338245742018	-0.8114613464573025	9.559234775916591	0.02953949111753404	2.635829423493536	-5.717766673708233	9.662308541795262	9.662308541795143	-2.415979503507393	0.1068895166633426	2.796642156612339	0.7620775719462168	1.357516581343586e-07	3.372692482893937e-08	-9.417309094456497e-07	3.801724981513296e-07	8.24001174735996e-08	-1.103440036850363e-07	-6.196057171915041e-07
0.03	-0.01619162196497379	0.1353671991513184	0.9314152746504724	0.1977791841977529	-0.2451686631535376	-0.2295815248992084	-0.2931304097939413	0.235583001630488	0.2355830016304641	0.1691191538726816	0.1730786762755313	0.09057395027861638	0.04301204163045808	-0.05656028775441038	-0.05074638674296284	-0.02393837848546967	0.2866221834750527	0.002274417054469262	0.08029460578736079	-0.1791075123805162	0.2901738599627892	0.2901738599627882	-0.07554461114631263	0.001424656763950103	0.08211569999397392	0.02406028410924185	0.09791770625690806	-0.09926401039829159	0.0096193884631539	-0.2510288900815603	0.1247037264764914	-0.1031247791480672	-0.01875246855368595	-30.09079167407887	-6.518429284199462	-39.87778275730739	-0.1317428564133446	-4.523856887480661	-612.7117602801154	51.91880339093515	-1.820869855744237	-1.573265660569395	-0.7882070366854659	9.118750954149281	0.08064980059886907	2.588785554480406	-5.589883670141374	9.271141896939254	9.271141896939397	-2.407014455331735	-0.005956434000501253	2.683537597136259	0.7966022672608234	1.580806067861059e-07	4.032796014620244e-08	-1.046973805198396e-06	5.014652877169819e-07	9.409059424718101e-08	-1.477256069124428e-07	-7.515313183408655e-07
0.04	-0.01685039010286676	0.1347816251517926	0.9311359615607945	0.2011016699745233	-0.2451429709748553	-0.2286527832993761	-0.2951936479785654	0.2389466556349088	0.2389466556349084	0.1682461769207955	0.1730959652075489	0.0915283064170944	0.04329095694772107	-0.07516009626927608	-0.06630250043963344	-0.03193062014064873	0.3775241718928037	0.002852894028245326	0.1052315806291564	-0.2330669992411015	0.3821491119082289	0.3821491119082314	-0.09890137886779755	0.002105409325450155	0.1086122004854501	0.03167653360069572	0.09174471912922441	-0.1002083672912174	0.01062408775920596	-0.244170344024739	0.1145284861600491	-0.09765085696424949	-0.01373468145562613	-30.11740522893475	-9.447305420305117	-37.91710851381369	-0.5541816066091952	-3.024714719488286	-611.8893983549932	54.64374354828697	-1.948194132438568	-1.540109879434732	-0.8192990078427874	9.138322648805952	0.01570269097217273	2.369982959560967	-5.150016309056146	9.172695140161322	9.172695140161622	-2.237597025326882	0.1942888124934618	2.624828393858321	0.7057517647207366	1.7998780835745e-07	4.712671245656172e-08	-1.148038950651736e-06	6.234881817649949e-07	1.052181449669742e-07	-1.831463523077625e-07	-8.824271311692308e-07
